#!OML:ASF F:\VICON\USERDATA\INSTALL\Justin_Nancy\Justin_Nancy.ASF
:FULLY-SPECIFIED
:DEGREES
249
root 1.00488 15.8204 -17.0934 37.6771 -0.388253 -1.08428
lowerback 47.651 -0.177904 2.64493
upperback 4.02128 1.71398 2.95762
thorax -17.5324 0.566947 1.09987
lowerneck -26.4492 -3.56315 -7.90398
upperneck -9.83652 -2.4972 7.38062
head 1.16223 -0.773513 3.39801
rclavicle -9.54166e-015 8.74653e-015
rhumerus -36.7475 -4.7389 -75.2173
rradius 80.4893
rwrist -15.7239
rhand -23.3444 20.094
rfingers 7.12502
rthumb 3.11055 -9.86311
lclavicle -9.54166e-015 8.74653e-015
lhumerus -33.8974 2.71399 82.4244
lradius 63.194
lwrist 20.3524
lhand -28.1178 17.7801
lfingers 7.12502
lthumb -1.49964 47.7545
rfemur -75.6945 -3.34461 21.6632
rtibia 63.5036
rfoot -20.1875 -6.11167
rtoes -4.39163
lfemur -76.9337 0.864724 -17.2642
ltibia 63.3905
lfoot -23.7002 3.56045
ltoes -4.01816
250
root 1.00674 15.813 -17.0295 38.1818 -0.25027 -1.05127
lowerback 49.511 -0.366881 2.82498
upperback 2.75507 1.65913 2.8138
thorax -17.8233 0.513075 1.0323
lowerneck -25.9259 -3.46124 -7.85486
upperneck -11.1868 -2.3645 7.52423
head 0.678265 -0.714229 3.45948
rclavicle 7.15625e-015 1.43125e-014
rhumerus -38.2375 -5.00101 -75.197
rradius 80.8512
rwrist -15.9742
rhand -23.3889 21.1782
rfingers 7.12502
rthumb 3.06757 -8.77952
lclavicle 7.15625e-015 1.43125e-014
lhumerus -35.4707 2.80559 82.569
lradius 63.1282
lwrist 21.0395
lhand -28.1057 16.7497
lfingers 7.12502
lthumb -1.48804 46.7242
rfemur -76.0008 -3.60533 21.9062
rtibia 63.4604
rfoot -20.3643 -6.41248
rtoes -5.75665
lfemur -77.2738 0.648724 -17.1602
ltibia 63.475
lfoot -23.9556 3.68267
ltoes -3.77347
251
root 1.00782 15.8068 -16.9707 38.7723 -0.0763868 -1.08416
lowerback 50.4979 -0.491502 2.96946
upperback 2.53089 1.63744 2.79762
thorax -18.2618 0.485371 0.971864
lowerneck -25.9379 -3.46017 -7.95044
upperneck -12.1699 -2.29154 7.8177
head 0.38226 -0.666122 3.58433
rclavicle 2.78299e-015 -1.23246e-014
rhumerus -39.6184 -5.17522 -75.2069
rradius 81.2961
rwrist -16.2517
rhand -23.5683 21.8389
rfingers 7.12502
rthumb 2.89432 -8.12118
lclavicle 2.78299e-015 -1.23246e-014
lhumerus -36.9149 2.89722 82.7201
lradius 63.5051
lwrist 21.9457
lhand -26.4466 19.5159
lfingers 7.12502
lthumb 0.11444 49.4956
rfemur -76.4242 -3.80987 22.142
rtibia 63.4819
rfoot -21.3781 -5.81528
rtoes 0.260773
lfemur -77.7409 0.453342 -16.9321
ltibia 63.5721
lfoot -24.2174 3.69519
ltoes -3.30699
252
root 1.00759 15.798 -16.8965 39.3001 0.0556702 -1.14037
lowerback 51.3425 -0.573488 3.13904
upperback 2.47198 1.66608 2.77256
thorax -18.4618 0.477656 0.862028
lowerneck -26.4273 -3.51052 -8.06456
upperneck -12.9204 -2.2504 8.06388
head 0.214955 -0.624706 3.69303
rclavicle 7.95139e-015 -1.42131e-014
rhumerus -40.5892 -5.51499 -75.2048
rradius 81.5996
rwrist -16.5609
rhand -24.0166 21.9734
rfingers 7.12502
rthumb 2.46131 -7.9921
lclavicle 7.95139e-015 -1.42131e-014
lhumerus -37.8349 2.87732 82.9562
lradius 63.9641
lwrist 22.9068
lhand -24.8577 24.8987
lfingers 7.12502
lthumb 1.649 54.8721
rfemur -76.742 -3.98186 22.3859
rtibia 63.558
rfoot -21.0018 -6.11391
rtoes -3.61548
lfemur -78.0556 0.315769 -16.7209
ltibia 63.6833
lfoot -24.6528 3.79698
ltoes -3.722
253
root 1.00325 15.7809 -16.8104 39.7704 -0.0690077 -1.14162
lowerback 52.001 -0.491254 2.97202
upperback 2.53405 1.68013 2.71561
thorax -18.4874 0.488865 0.876406
lowerneck -26.624 -3.49583 -8.09441
upperneck -13.9795 -2.15414 8.26533
head -0.0889392 -0.567227 3.78224
rclavicle 4.77083e-015 -2.61402e-014
rhumerus -41.4194 -5.85841 -75.2529
rradius 81.9128
rwrist -16.9398
rhand -24.3653 22.3066
rfingers 7.12502
rthumb 2.12456 -7.66258
lclavicle 4.77083e-015 -2.61402e-014
lhumerus -38.614 2.94485 83.13
lradius 63.3224
lwrist 22.8557
lhand -25.7134 22.0629
lfingers 7.12502
lthumb 0.822554 52.0411
rfemur -77.0227 -3.96251 22.4024
rtibia 63.6729
rfoot -21.3228 -6.15854
rtoes -3.93663
lfemur -78.2566 0.338481 -16.7255
ltibia 63.823
lfoot -25.0354 3.94783
ltoes -3.85369
254
root 1.00413 15.7759 -16.7231 40.0392 -0.235912 -1.14612
lowerback 52.9515 -0.444228 2.86344
upperback 2.49402 1.68728 2.60648
thorax -18.6708 0.489208 0.811309
lowerneck -26.5512 -3.42176 -8.06526
upperneck -15.1722 -2.01071 8.35742
head -0.47366 -0.497298 3.83253
rclavicle 9.54166e-015 2.06736e-014
rhumerus -42.3576 -6.21719 -75.3604
rradius 82.3178
rwrist -17.3805
rhand -24.4126 22.8921
rfingers 7.12502
rthumb 2.0789 -7.07752
lclavicle 9.54166e-015 2.06736e-014
lhumerus -39.5305 3.0397 83.2393
lradius 63.5461
lwrist 23.0545
lhand -26.0407 20.836
lfingers 7.12502
lthumb 0.506444 50.8152
rfemur -77.0379 -3.95036 22.3849
rtibia 63.7908
rfoot -22.0886 -5.90612
rtoes -1.76405
lfemur -78.2269 0.371206 -16.8154
ltibia 63.9693
lfoot -25.2946 4.2173
ltoes -4.00229
255
root 1.00484 15.7673 -16.6377 40.336 -0.00332551 -1.13078
lowerback 53.901 -0.669724 3.15809
upperback 2.32478 1.62047 2.52102
thorax -18.9907 0.433883 0.626988
lowerneck -26.4681 -3.41439 -8.1762
upperneck -16.1349 -1.9193 8.58047
head -0.779947 -0.444335 3.94203
rclavicle -1.03368e-014 -2.40529e-014
rhumerus -43.1008 -6.6668 -75.5216
rradius 82.2546
rwrist -17.8269
rhand -24.5205 23.0731
rfingers 7.12502
rthumb 1.97468 -6.89755
lclavicle -1.03368e-014 -2.40529e-014
lhumerus -40.4083 3.11493 83.3377
lradius 63.7437
lwrist 23.6179
lhand -26.9576 19.1792
lfingers 7.12502
lthumb -0.379119 49.1587
rfemur -77.0918 -4.24914 22.6526
rtibia 63.9519
rfoot -22.61 -5.86392
rtoes -1.51476
lfemur -78.3424 0.209115 -16.7453
ltibia 64.1521
lfoot -25.5143 4.45541
ltoes -4.32099
256
root 1.001 15.7465 -16.5607 40.7669 0.220082 -0.921135
lowerback 54.7031 -0.894286 3.30925
upperback 2.10392 1.47197 2.42059
thorax -19.3562 0.35838 0.533128
lowerneck -26.2131 -3.45155 -8.29065
upperneck -17.0597 -1.89699 8.87627
head -1.0868 -0.431288 4.07098
rclavicle 9.14409e-015 -2.88238e-015
rhumerus -43.7072 -7.13394 -75.7046
rradius 82.0908
rwrist -18.4646
rhand -24.7369 22.8353
rfingers 7.12502
rthumb 1.7657 -7.13716
lclavicle 9.14409e-015 -2.88238e-015
lhumerus -41.1392 3.32551 83.4025
lradius 63.943
lwrist 23.7421
lhand -26.9612 18.5225
lfingers 7.12502
lthumb -0.382597 48.5019
rfemur -77.4243 -4.66651 22.7751
rtibia 64.11
rfoot -22.551 -6.04638
rtoes -3.84326
lfemur -78.6345 -0.0535636 -16.8359
ltibia 64.2791
lfoot -25.5582 4.58566
ltoes -3.89938
